<?xml version="1.0" encoding="utf-8"?>
<!-- Generator: Adobe Illustrator 16.0.3, SVG Export Plug-In . SVG Version: 6.00 Build 0)  -->
<!DOCTYPE svg PUBLIC "-//W3C//DTD SVG 1.1//EN" "http://www.w3.org/Graphics/SVG/1.1/DTD/svg11.dtd">
<svg version="1.1" id="圖層_1" xmlns="http://www.w3.org/2000/svg" xmlns:xlink="http://www.w3.org/1999/xlink" x="0px" y="0px"
	 width="43px" height="43px" viewBox="0 0 43 43" enable-background="new 0 0 43 43" xml:space="preserve">
<g>
	<path id="Behance" fill="#59B4A2" d="M34.456,14.332h-8.052v-2h8.052V14.332L34.456,14.332z M21.042,22.535
		c0.519,0.805,0.779,1.781,0.779,2.928c0,1.188-0.292,2.254-0.888,3.193c-0.379,0.623-0.851,1.148-1.416,1.571
		c-0.637,0.488-1.39,0.823-2.258,1.004c-0.869,0.18-1.809,0.271-2.824,0.271H5.429v-20h9.659c2.435,0.039,4.161,0.745,5.18,2.13
		c0.613,0.85,0.916,1.869,0.916,3.054c0,1.222-0.306,2.201-0.925,2.944c-0.343,0.417-0.852,0.795-1.523,1.137
		C19.753,21.139,20.525,21.727,21.042,22.535z M10.042,19.386h4.231c0.87,0,1.573-0.166,2.115-0.496
		c0.542-0.331,0.812-0.916,0.812-1.758c0-0.929-0.357-1.547-1.075-1.844c-0.616-0.208-1.405-0.313-2.361-0.313h-3.723V19.386z
		 M17.605,25.178c0-1.039-0.424-1.756-1.272-2.142c-0.474-0.219-1.143-0.331-2-0.339h-4.292v5.33h4.226
		c0.868,0,1.54-0.113,2.025-0.353C17.167,27.239,17.605,26.41,17.605,25.178z M37.443,21.924c0.097,0.654,0.142,1.604,0.124,2.844
		h-10.43c0.057,1.441,0.554,2.446,1.496,3.022c0.568,0.361,1.258,0.538,2.064,0.538c0.852,0,1.546-0.214,2.078-0.658
		c0.291-0.233,0.549-0.564,0.771-0.981h3.823c-0.1,0.851-0.561,1.713-1.389,2.589c-1.28,1.393-3.08,2.094-5.386,2.094
		c-1.91,0-3.59-0.59-5.048-1.764c-1.454-1.178-2.186-3.088-2.186-5.738c0-2.486,0.655-4.389,1.972-5.712
		c1.321-1.327,3.025-1.988,5.127-1.988c1.245,0,2.366,0.223,3.367,0.67c0.999,0.447,1.825,1.153,2.474,2.121
		C36.889,19.815,37.269,20.8,37.443,21.924z M33.681,22.298c-0.071-0.996-0.401-1.75-1.002-2.264
		c-0.593-0.517-1.334-0.775-2.219-0.775c-0.964,0-1.709,0.277-2.236,0.821c-0.53,0.544-0.862,1.283-0.997,2.218H33.681
		L33.681,22.298z"/>
</g>
</svg>
