<?xml version="1.0" encoding="utf-8"?>
<!-- Generator: Adobe Illustrator 16.0.3, SVG Export Plug-In . SVG Version: 6.00 Build 0)  -->
<!DOCTYPE svg PUBLIC "-//W3C//DTD SVG 1.1//EN" "http://www.w3.org/Graphics/SVG/1.1/DTD/svg11.dtd">
<svg version="1.1" id="圖層_1" xmlns="http://www.w3.org/2000/svg" xmlns:xlink="http://www.w3.org/1999/xlink" x="0px" y="0px"
	 width="43px" height="43px" viewBox="0 0 43 43" enable-background="new 0 0 43 43" xml:space="preserve">
<g>
	<path id="Facebook" fill="#59B4A2" d="M18.188,13.842c0,0.63,0,3.442,0,3.442h-2.521v4.208h2.521V34h5.179V21.493h3.479
		c0,0,0.324-2.019,0.482-4.225c-0.453,0-3.941,0-3.941,0s0-2.449,0-2.877c0-0.43,0.565-1.009,1.123-1.009c0.559,0,1.734,0,2.823,0
		c0-0.573,0-2.553,0-4.382c-1.454,0-3.108,0-3.837,0C18.06,9,18.188,13.213,18.188,13.842z"/>
</g>
</svg>
